<svg height="141" viewBox="0 0 237 141" width="237" xmlns="http://www.w3.org/2000/svg" xmlns:xlink="http://www.w3.org/1999/xlink"><linearGradient id="a" x1="0%" x2="131.054905%" y1="155.989583%" y2="-87.916667%"><stop offset="0" stop-color="#36dfe2"/><stop offset=".0165002121" stop-color="#35dee1"/><stop offset="1" stop-color="#08a2b3"/></linearGradient><g fill="none" fill-rule="evenodd" transform="translate(-1 2)"><g fill="#f49c12"><path d="m231.5 105.608514-2.844832 1.467746c-.490811.253226-1.093972.060626-1.347198-.430185-.100122-.194061-.133971-.415561-.096377-.630667l.446512-2.554851c.057429-.328596-.052771-.664191-.293819-.894776l-1.877598-1.7961c-.39909-.381767-.413133-1.0147762-.031366-1.4138658.154875-.1619032.359635-.2671051.581443-.2987351l2.628205-.3747837c.324136-.0462219.605113-.2481911.752216-.5406991l1.189426-2.365129c.248134-.4934046.849269-.6922359 1.342674-.4441021.191886.0964995.347602.2522164.444102.4441021l1.189426 2.365129c.147103.292508.42808.4944772.752216.5406991l2.628205.3747837c.546754.0779675.92678.5844039.848812 1.1311579-.031629.221807-.136831.426567-.298735.581443l-1.877598 1.7961c-.241048.230585-.351248.56618-.293819.894776l.446512 2.554851c.095082.544039-.268869 1.062148-.812908 1.15723-.215106.037594-.436606.003745-.630667-.096378z"/><path d="m187.351047 126.424415-2.386326 1.231187c-.490811.253226-1.093971.060625-1.347197-.430185-.100123-.194061-.133972-.415561-.096378-.630667l.446512-2.554851c.057429-.328596-.052771-.664192-.293819-.894776l-1.877598-1.7961c-.39909-.381767-.413133-1.014776-.031366-1.413866.154876-.161903.359636-.267105.581443-.298735l2.628206-.374784c.324135-.046222.605112-.248191.752215-.540699l1.189426-2.365129c.248134-.493404.84927-.692236 1.342674-.444102.191886.0965.347603.252216.444102.444102l1.189427 2.365129c.147102.292508.42808.494477.752215.540699l2.628205.374784c.546754.077967.92678.584404.848813 1.131158-.03163.221807-.136832.426567-.298735.581443l-1.877599 1.7961c-.241047.230584-.351247.56618-.293819.894776l.446513 2.554851c.095081.544038-.26887 1.062148-.812909 1.15723-.215106.037594-.436606.003745-.630666-.096378l-2.386327-1.231187c-.287656-.148411-.629355-.148411-.917012 0z" transform="matrix(.89879405 -.43837115 .43837115 .89879405 -34.289431 94.634842)"/><path d="m226.041494 137.845073-2.386326 1.231187c-.490811.253226-1.093972.060626-1.347198-.430185-.100122-.194061-.133971-.415561-.096377-.630667l.446512-2.554851c.057429-.328596-.052771-.664191-.293819-.894776l-1.877598-1.7961c-.39909-.381767-.413133-1.014776-.031366-1.413866.154875-.161903.359635-.267105.581443-.298735l2.628205-.374784c.324136-.046222.605113-.248191.752216-.540699l1.189426-2.365129c.248134-.493404.849269-.692236 1.342674-.444102.191886.0965.347602.252217.444102.444102l1.189426 2.365129c.147103.292508.42808.494477.752216.540699l2.628205.374784c.546754.077968.92678.584404.848812 1.131158-.031629.221807-.136831.426567-.298735.581443l-1.877598 1.7961c-.241048.230585-.351248.56618-.293819.894776l.446512 2.554851c.095082.544039-.268869 1.062148-.812908 1.15723-.215106.037594-.436606.003745-.630667-.096378l-2.386326-1.231187c-.287656-.148411-.629356-.148411-.917012 0z" transform="matrix(1 0 0 -1 0 266)"/></g><path d="m42.5294603 78.4746461 13.1628144-25.1165255c1.726369-3.2941581 5.1382507-5.3581206 8.8573673-5.3581206h43.170963c3.691545 0 7.082837 2.0337634 8.821464 5.2902459l16.038048 30.0395855 18.680181 32.0708936c2.779711 4.772321 1.164381 10.894453-3.60794 13.674164-.377439.219845-.768877.414725-1.171799.583386l-20.440789 8.556434c-1.238003.518223-2.567654.781942-3.909729.775445l-63.1142103-.305575c-1.2948172-.006269-2.5760937-.263942-3.7726708-.758709l-35.0808513-14.505404c-5.1037595-2.110328-7.5304154-7.958501-5.4200876-13.062261.44249-1.070147 1.0674952-2.055306 1.8471488-2.911549l24.4767484-26.8812531c.5750702-.631563 1.0668545-1.334202 1.4633421-2.0907568z" fill="url(#a)" transform="matrix(-1 0 0 -1 164 187)"/><g stroke="#22252c" stroke-linecap="round" stroke-linejoin="round" stroke-width="4"><path d="m54.5294603 72.4746461 13.1628144-25.1165255c1.726369-3.2941581 5.1382507-5.3581206 8.8573673-5.3581206h43.170963c3.691545 0 7.082837 2.0337634 8.821464 5.2902459l16.038048 30.0395855 18.680181 32.0708936c2.779711 4.772321 1.164381 10.894453-3.60794 13.674164-.377439.219845-.768877.414725-1.171799.583386l-20.440789 8.556434c-1.238003.518223-2.567654.781942-3.909729.775445l-63.1142103-.305575c-1.2948172-.006269-2.5760937-.263942-3.7726708-.758709l-35.0808513-14.505404c-5.1037595-2.110328-7.5304154-7.958501-5.4200876-13.062261.44249-1.070147 1.0674952-2.055306 1.8471488-2.911549l24.4767484-26.8812531c.5750702-.631563 1.0668545-1.334202 1.4633421-2.0907568z" transform="matrix(-1 0 0 -1 188 175)"/><path d="m44 73 28.4221779 27.284668 43.3848941-3.6840269 18.395809-20.645552" transform="matrix(-1 0 0 -1 178.20288 173.284668)"/><path d="m52 42 10 35" transform="matrix(-1 0 0 -1 114 119)"/><path d="m118 43-12 30" transform="matrix(-1 0 0 -1 224 116)"/><path d="m67.4648566 22.3739969-.7327706 16.4494726h-34.2672294l2.5160455-5.7555787h3.586006c-.0814595-9.1561205 7.2750067-16.6446587 16.4311272-16.7261182.571535-.0050848 1.1429506.0193886 1.7119579.0733222 1.2642184.1198396 2.3562432.2746726 3.2760735.4645089" transform="matrix(-.65605903 .75470958 -.75470958 -.65605903 103.561373 7.968949)"/><path d="m151.074252 19.8836172-.1953 31h-33.8047l2.482084-5.7748894h3.537603c0-7.8961428 6.401089-14.2972314 14.297232-14.2972314h.810655" transform="matrix(-.89879405 -.43837115 .43837115 -.89879405 239.068235 125.960485)"/><path d="m212 96.0000005c-47.947149-11.4011046-59.463176-18.2537802-67.633961-36.5075604m-4.366039-20.4924401c1.978417-.0000001 11.725107.0000012 23.551791.0000035 4.226042.0000008 7.997959 2.6418026 9.429504 6.6043028 5.697534 15.7707072 13.59547 25.9563442 21.97598 31.117618" transform="matrix(-1 0 0 -1 352 135)"/><path d="m196 76v20h16" transform="matrix(-1 0 0 -1 408 172)"/><circle cx="188.5" cy="86.5" r="3.5" transform="matrix(-1 0 0 -1 377 173)"/></g><circle cx="206.5" cy="83.5" fill="#22252c" r="1.5" transform="matrix(-1 0 0 -1 413 167)"/><circle cx="201.5" cy="83.5" fill="#22252c" r="1.5" transform="matrix(-1 0 0 -1 403 167)"/><g stroke="#22252c" stroke-linecap="round" stroke-linejoin="round" stroke-width="4"><path d="m13.2356895 43c1.9173445 5.0745348 7.917971 7.6118022 18.0018794 7.6118022 9.3305215 0-21.1826334 7.1668989-26.2375689-3.3301635" transform="matrix(-1 0 0 -1 38 96)"/><path d="m19 8c2.5441501-5.82813068 8.9644852-8 12-8"/><path d="m161 20c3.604213-8.742196 12.699687-12 17-12" transform="matrix(-1 0 0 1 339 0)"/><path d="m1.10821932 11.0946017c2.54415005-5.8281307 8.96448518-8.00000001 11.99999998-8.00000001" transform="matrix(.91354546 -.40673664 .40673664 .91354546 -2.271097 3.504534)"/></g></g></svg>